<?xml version="1.0" encoding="UTF-8" standalone="no"?>
<!-- Created with Inkscape (http://www.inkscape.org/) -->

<svg
   xmlns:dc="http://purl.org/dc/elements/1.1/"
   xmlns:cc="http://creativecommons.org/ns#"
   xmlns:rdf="http://www.w3.org/1999/02/22-rdf-syntax-ns#"
   xmlns:svg="http://www.w3.org/2000/svg"
   xmlns="http://www.w3.org/2000/svg"
   xmlns:xlink="http://www.w3.org/1999/xlink"
   xmlns:sodipodi="http://sodipodi.sourceforge.net/DTD/sodipodi-0.dtd"
   xmlns:inkscape="http://www.inkscape.org/namespaces/inkscape"
   width="210mm"
   height="297mm"
   viewBox="0 0 210 297"
   version="1.1"
   id="svg995"
   inkscape:version="0.92.3 (2405546, 2018-03-11)"
   sodipodi:docname="10_botoes_avancados.svg">
  <defs
     id="defs989">
    <linearGradient
       inkscape:collect="always"
       id="linearGradient1195">
      <stop
         style="stop-color:#c87137;stop-opacity:1;"
         offset="0"
         id="stop1191" />
      <stop
         style="stop-color:#c87137;stop-opacity:0;"
         offset="1"
         id="stop1193" />
    </linearGradient>
    <linearGradient
       inkscape:collect="always"
       id="linearGradient1187">
      <stop
         style="stop-color:#784421;stop-opacity:1;"
         offset="0"
         id="stop1183" />
      <stop
         style="stop-color:#784421;stop-opacity:0;"
         offset="1"
         id="stop1185" />
    </linearGradient>
    <linearGradient
       id="linearGradient1054"
       inkscape:collect="always">
      <stop
         id="stop1040"
         offset="0"
         style="stop-color:#cccccc;stop-opacity:1;" />
      <stop
         style="stop-color:#000000;stop-opacity:0.49803922"
         offset="0.39414826"
         id="stop1042" />
      <stop
         id="stop1056"
         offset="0.49016076"
         style="stop-color:#0c0c0c;stop-opacity:0.46666667;" />
      <stop
         style="stop-color:#0f0f0f;stop-opacity:0.45490196;"
         offset="0.56882513"
         id="stop1066" />
      <stop
         id="stop1068"
         offset="0.63839543"
         style="stop-color:#101010;stop-opacity:0.45098039;" />
      <stop
         style="stop-color:#121212;stop-opacity:0.44705882;"
         offset="0.69400966"
         id="stop1058" />
      <stop
         id="stop1044"
         offset="0.75829792"
         style="stop-color:#191919;stop-opacity:0.43529412;" />
      <stop
         id="stop1046"
         offset="0.89059651"
         style="stop-color:#333333;stop-opacity:0.37254902;" />
      <stop
         id="stop1048"
         offset="0.92630118"
         style="stop-color:#666666;stop-opacity:0.24705882;" />
      <stop
         style="stop-color:#999999;stop-opacity:0.12156863;"
         offset="1"
         id="stop1050" />
      <stop
         id="stop1052"
         offset="1"
         style="stop-color:#cccccc;stop-opacity:0;" />
    </linearGradient>
    <linearGradient
       inkscape:collect="always"
       id="linearGradient960">
      <stop
         style="stop-color:#cccccc;stop-opacity:1;"
         offset="0"
         id="stop956" />
      <stop
         id="stop964"
         offset="0.37088817"
         style="stop-color:#000000;stop-opacity:0.49803922" />
      <stop
         style="stop-color:#191919;stop-opacity:0.43529412;"
         offset="0.54430509"
         id="stop976" />
      <stop
         style="stop-color:#333333;stop-opacity:0.37254902;"
         offset="0.67660362"
         id="stop974" />
      <stop
         style="stop-color:#666666;stop-opacity:0.24705882;"
         offset="0.87047696"
         id="stop970" />
      <stop
         id="stop972"
         offset="1"
         style="stop-color:#999999;stop-opacity:0.12156863;" />
      <stop
         style="stop-color:#cccccc;stop-opacity:0;"
         offset="1"
         id="stop958" />
    </linearGradient>
    <linearGradient
       inkscape:collect="always"
       id="linearGradient1832">
      <stop
         style="stop-color:#33ba33;stop-opacity:1;"
         offset="0"
         id="stop1828" />
      <stop
         style="stop-color:#33ba33;stop-opacity:0;"
         offset="1"
         id="stop1830" />
    </linearGradient>
    <linearGradient
       inkscape:collect="always"
       xlink:href="#linearGradient1832"
       id="linearGradient1834"
       x1="-27.97024"
       y1="101.20833"
       x2="-163.28572"
       y2="101.20834"
       gradientUnits="userSpaceOnUse" />
    <filter
       inkscape:collect="always"
       style="color-interpolation-filters:sRGB"
       id="filter1329"
       x="-0.10261821"
       width="1.2052364"
       y="-0.32513411"
       height="1.6502682">
      <feGaussianBlur
         inkscape:collect="always"
         stdDeviation="7.2250439"
         id="feGaussianBlur1331" />
    </filter>
    <linearGradient
       inkscape:collect="always"
       xlink:href="#linearGradient960"
       id="linearGradient962"
       x1="707.70624"
       y1="-36.834324"
       x2="707.70624"
       y2="-79.691429"
       gradientUnits="userSpaceOnUse" />
    <linearGradient
       inkscape:collect="always"
       xlink:href="#linearGradient1054"
       id="linearGradient1038"
       gradientUnits="userSpaceOnUse"
       x1="707.70624"
       y1="-36.834324"
       x2="707.70624"
       y2="-79.691429" />
    <linearGradient
       inkscape:collect="always"
       xlink:href="#linearGradient1187"
       id="linearGradient1189"
       x1="3469.2617"
       y1="-282.06445"
       x2="3333.6265"
       y2="73.60289"
       gradientUnits="userSpaceOnUse" />
    <linearGradient
       inkscape:collect="always"
       xlink:href="#linearGradient1195"
       id="linearGradient1197"
       x1="870.4585"
       y1="-75.028496"
       x2="1107.7112"
       y2="-86.193092"
       gradientUnits="userSpaceOnUse"
       gradientTransform="translate(0.04579147)" />
  </defs>
  <sodipodi:namedview
     id="base"
     pagecolor="#ffffff"
     bordercolor="#666666"
     borderopacity="1.0"
     inkscape:pageopacity="0.0"
     inkscape:pageshadow="2"
     inkscape:zoom="0.66354167"
     inkscape:cx="3527.2763"
     inkscape:cy="1328.0454"
     inkscape:document-units="mm"
     inkscape:current-layer="layer1"
     showgrid="false"
     inkscape:window-width="1366"
     inkscape:window-height="715"
     inkscape:window-x="-8"
     inkscape:window-y="-8"
     inkscape:window-maximized="1" />
  <metadata
     id="metadata992">
    <rdf:RDF>
      <cc:Work
         rdf:about="">
        <dc:format>image/svg+xml</dc:format>
        <dc:type
           rdf:resource="http://purl.org/dc/dcmitype/StillImage" />
        <dc:title />
      </cc:Work>
    </rdf:RDF>
  </metadata>
  <g
     inkscape:label="Camada 1"
     inkscape:groupmode="layer"
     id="layer1">
    <rect
       y="-86.990578"
       x="844.1413"
       height="54.229198"
       width="144.34537"
       id="rect1199"
       style="fill:#552200;fill-opacity:1;fill-rule:evenodd;stroke-width:0.27709013" />
    <path
       style="fill:url(#linearGradient1197);fill-opacity:1;fill-rule:evenodd;stroke-width:0.26458332"
       d="m 844.18703,-86.990554 v 37.913447 c 3.16613,1.380286 9.21099,0.963377 10.88718,2.420525 -9.14043,4.05184 -12.21865,2.900029 -1.91564,6.119521 l -8.63513,-0.410826 c 0.0374,0.0019 -0.0374,-0.0019 -0.33641,-0.01603 -0.20902,2.180032 -0.29525,4.23703 2.49544,3.417364 h 141.84974 v -36.587948 l -3.18998,1.10019 2.3926,-3.389455 -7.9747,-1.993678 8.77208,-1.581817 v -6.991302 z m 144.34518,6.991302 v 5.86476 0 z m -144.34518,39.035344 c 0,-8.113199 -0.0605,-8.768905 0,0 z"
       id="rect1118"
       inkscape:connector-curvature="0"
       sodipodi:nodetypes="cccccccccccccccccccccc" />
    <rect
       style="fill:url(#linearGradient1038);fill-rule:evenodd;stroke-width:0.44032842;fill-opacity:1"
       id="rect938"
       width="135.90216"
       height="40.601471"
       x="637.21753"
       y="-80.255333" />
    <path
       style="fill:#008000;fill-rule:evenodd;stroke-width:0.30900556"
       d="m -157.54771,-5.9478216 h 133.56599 c 4.253786,0 7.678314,3.4245281 7.678314,7.6783142 V 46.094106 c 0,4.253786 -3.424528,7.678314 -7.678314,7.678314 h -133.56599 c -4.25379,0 -7.67832,-3.424528 -7.67832,-7.678314 V 1.7304926 c 0,-4.2537861 3.42453,-7.6783142 7.67832,-7.6783142 z"
       id="rect1790" />
    <rect
       style="fill:#008000;fill-rule:evenodd;stroke-width:0.29087189"
       id="rect815"
       width="148.92262"
       height="52.916668"
       x="-347.41055"
       y="-6.703774"
       ry="6.8035698" />
    <flowRoot
       xml:space="preserve"
       id="flowRoot817"
       style="font-style:normal;font-weight:normal;font-size:74.66666412px;line-height:1.25;font-family:sans-serif;letter-spacing:0px;word-spacing:0px;fill:#ffffff;fill-opacity:1;stroke:none"
       transform="matrix(0.26458333,0,0,0.26458333,-357.3496,-48.459948)"><flowRegion
         id="flowRegion819"
         style="font-size:74.66666412px;fill:#ffffff"><rect
           id="rect821"
           width="500.00006"
           height="139.99998"
           x="85.714287"
           y="216.8054"
           style="font-size:74.66666412px;fill:#ffffff" /></flowRegion><flowPara
         id="flowPara823"
         style="font-style:normal;font-variant:normal;font-weight:bold;font-stretch:normal;font-family:sans-serif;-inkscape-font-specification:'sans-serif Bold'">NEW GAME</flowPara></flowRoot>    <rect
       ry="6.8035698"
       y="70.025391"
       x="-347.41055"
       height="52.916668"
       width="148.92262"
       id="rect1748"
       style="fill:#aa0000;fill-rule:evenodd;stroke-width:0.29087189" />
    <flowRoot
       transform="matrix(0.26458333,0,0,0.26458333,-357.3496,27.13529)"
       style="font-style:normal;font-weight:normal;font-size:74.66666412px;line-height:1.25;font-family:sans-serif;letter-spacing:0px;word-spacing:0px;fill:#ffffff;fill-opacity:1;stroke:none"
       id="flowRoot1756"
       xml:space="preserve"><flowRegion
         style="font-size:74.66666412px;fill:#ffffff"
         id="flowRegion1752"><rect
           style="font-size:74.66666412px;fill:#ffffff"
           y="216.8054"
           x="85.714287"
           height="139.99998"
           width="500.00006"
           id="rect1750" /></flowRegion><flowPara
         style="font-style:normal;font-variant:normal;font-weight:bold;font-stretch:normal;font-family:sans-serif;-inkscape-font-specification:'sans-serif Bold'"
         id="flowPara1754">NEW GAME</flowPara></flowRoot>    <rect
       style="fill:#008000;fill-rule:evenodd;stroke-width:0.29087189"
       id="rect1760"
       width="148.92262"
       height="52.916668"
       x="-347.41055"
       y="146.75456"
       ry="6.8035698" />
    <flowRoot
       xml:space="preserve"
       id="flowRoot1768"
       style="font-style:normal;font-weight:normal;font-size:74.66666412px;line-height:1.25;font-family:sans-serif;letter-spacing:0px;word-spacing:0px;fill:#ffffff;fill-opacity:1;stroke:none"
       transform="matrix(0.26458333,0,0,0.26458333,-357.3496,104.99839)"><flowRegion
         id="flowRegion1764"
         style="font-size:74.66666412px;fill:#ffffff"><rect
           id="rect1762"
           width="500.00006"
           height="139.99998"
           x="85.714287"
           y="216.8054"
           style="font-size:74.66666412px;fill:#ffffff" /></flowRegion><flowPara
         id="flowPara1766"
         style="font-style:normal;font-variant:normal;font-weight:bold;font-stretch:normal;font-family:sans-serif;-inkscape-font-specification:'sans-serif Bold'">NEW GAME</flowPara></flowRoot>    <rect
       ry="6.8035698"
       y="-5.9478216"
       x="-165.22603"
       height="52.916668"
       width="148.92262"
       id="rect1770"
       style="fill:#33ba33;fill-rule:evenodd;stroke-width:0.29087189;fill-opacity:1" />
    <flowRoot
       transform="matrix(0.26458333,0,0,0.26458333,-175.16508,-47.703996)"
       style="font-style:normal;font-weight:normal;font-size:74.66666412px;line-height:1.25;font-family:sans-serif;letter-spacing:0px;word-spacing:0px;fill:#00ff00;fill-opacity:1;stroke:none;"
       id="flowRoot1778"
       xml:space="preserve"><flowRegion
         style="font-size:74.66666412px;fill:#00ff00;"
         id="flowRegion1774"><rect
           style="font-size:74.66666412px;fill:#00ff00;"
           y="216.8054"
           x="85.714287"
           height="139.99998"
           width="500.00006"
           id="rect1772" /></flowRegion><flowPara
         style="font-style:normal;font-variant:normal;font-weight:bold;font-stretch:normal;font-family:sans-serif;-inkscape-font-specification:'sans-serif Bold';fill:#00ff00;"
         id="flowPara1776">NEW GAME</flowPara></flowRoot>    <flowRoot
       xml:space="preserve"
       id="flowRoot1798"
       style="font-style:normal;font-weight:normal;font-size:74.66666412px;line-height:1.25;font-family:sans-serif;letter-spacing:0px;word-spacing:0px;fill:#008000;fill-opacity:1;stroke:none"
       transform="matrix(0.26458333,0,0,0.26458333,-175.16508,-47.976637)"><flowRegion
         id="flowRegion1794"
         style="font-size:74.66666412px;fill:#008000"><rect
           id="rect1792"
           width="500.00006"
           height="139.99998"
           x="85.714287"
           y="216.8054"
           style="font-size:74.66666412px;fill:#008000" /></flowRegion><flowPara
         id="flowPara1796"
         style="font-style:normal;font-variant:normal;font-weight:bold;font-stretch:normal;font-family:sans-serif;-inkscape-font-specification:'sans-serif Bold';fill:#008000">NEW GAME</flowPara></flowRoot>    <rect
       ry="7.6783142"
       y="64.05336"
       x="-168.24983"
       height="59.720242"
       width="148.92262"
       id="rect1800"
       style="fill:#008000;fill-rule:evenodd;stroke-width:0.30900556" />
    <rect
       style="fill:url(#linearGradient1834);fill-opacity:1;fill-rule:evenodd;stroke-width:0.29087189"
       id="rect1802"
       width="148.92262"
       height="52.916668"
       x="-168.24983"
       y="70.403366"
       ry="6.8035698" />
    <flowRoot
       xml:space="preserve"
       id="flowRoot1810"
       style="font-style:normal;font-weight:normal;font-size:74.66666412px;line-height:1.25;font-family:sans-serif;letter-spacing:0px;word-spacing:0px;fill:#00ff00;fill-opacity:1;stroke:none"
       transform="matrix(0.26458333,0,0,0.26458333,-178.18889,28.647194)"><flowRegion
         id="flowRegion1806"
         style="font-size:74.66666412px;fill:#00ff00"><rect
           id="rect1804"
           width="500.00006"
           height="139.99998"
           x="85.714287"
           y="216.8054"
           style="font-size:74.66666412px;fill:#00ff00" /></flowRegion><flowPara
         id="flowPara1808"
         style="font-style:normal;font-variant:normal;font-weight:bold;font-stretch:normal;font-family:sans-serif;-inkscape-font-specification:'sans-serif Bold';fill:#00ff00">NEW GAME</flowPara></flowRoot>    <flowRoot
       transform="matrix(0.26458333,0,0,0.26458333,-178.18889,28.374553)"
       style="font-style:normal;font-weight:normal;font-size:74.66666412px;line-height:1.25;font-family:sans-serif;letter-spacing:0px;word-spacing:0px;fill:#008000;fill-opacity:1;stroke:none"
       id="flowRoot1818"
       xml:space="preserve"><flowRegion
         style="font-size:74.66666412px;fill:#008000"
         id="flowRegion1814"><rect
           style="font-size:74.66666412px;fill:#008000"
           y="216.8054"
           x="85.714287"
           height="139.99998"
           width="500.00006"
           id="rect1812" /></flowRegion><flowPara
         style="font-style:normal;font-variant:normal;font-weight:bold;font-stretch:normal;font-family:sans-serif;-inkscape-font-specification:'sans-serif Bold';fill:#008000"
         id="flowPara1816">NEW GAME</flowPara></flowRoot>    <path
       style="fill:#f32bb0;fill-rule:evenodd;stroke-width:0.26458332;fill-opacity:1"
       d="m 277.8125,-93.827379 c 40.73081,-8.335141 81.99586,-9.844151 124.73215,0 17.34469,3.995287 32.12797,14.329075 32.12797,32.127973 0,17.798899 -14.61484,35.304598 -32.12797,32.127976 -40.36974,-7.322473 -82.3919,-4.642175 -124.73215,0 -17.69288,1.939843 -32.12798,-14.329077 -32.12798,-32.127976 0,-17.798898 14.69045,-28.559564 32.12798,-32.127973 z"
       id="rect914"
       inkscape:connector-curvature="0"
       sodipodi:nodetypes="sssssss" />
    <path
       sodipodi:nodetypes="sssssss"
       inkscape:connector-curvature="0"
       id="path917"
       d="m 277.8125,-1.6011885 c 40.73081,6.4192577 81.99586,11.3092531 124.73215,0 17.20661,-4.5533648 32.12797,14.3290745 32.12797,32.1279725 0,17.798899 -14.52039,29.525331 -32.12797,32.127976 -40.36974,5.967209 -82.3919,11.771767 -124.73215,0 -17.14846,-4.767748 -32.12798,-14.329077 -32.12798,-32.127976 0,-17.798898 14.54609,-34.8989139 32.12798,-32.1279725 z"
       style="fill:#f32bb0;fill-rule:evenodd;stroke-width:0.26458332;fill-opacity:1" />
    <path
       style="fill:#f32bb0;fill-rule:evenodd;stroke-width:0.26458332;fill-opacity:1"
       d="m 280.83631,94.404764 c 26.12766,-11.56713 68.56031,-8.422805 124.73215,0 17.60211,2.639385 32.12797,14.329076 32.12797,32.127976 0,17.7989 -16.86433,41.2834 -32.12797,32.12797 -30.9843,-18.585 -82.32213,-4.72589 -124.73215,0 -17.68942,1.97119 -32.12798,-14.32907 -32.12798,-32.12797 0,-17.7989 15.85271,-24.92266 32.12798,-32.127976 z"
       id="path919"
       inkscape:connector-curvature="0"
       sodipodi:nodetypes="sssssss" />
    <path
       sodipodi:nodetypes="sssssss"
       inkscape:connector-curvature="0"
       id="path923"
       d="m 296.67019,-86.489723 c 30.38982,-6.218964 61.17825,-7.344858 93.06439,0 12.94111,2.980939 36.82231,11.447074 36.82231,24.727079 0,13.280006 -23.75552,25.585299 -36.82231,23.215178 -30.12043,-5.463399 -61.47374,-3.463592 -93.06439,0 -13.2009,1.447343 -39.09018,-7.667314 -39.09018,-20.94732 0,-13.280005 26.0798,-24.332497 39.09018,-26.994937 z"
       style="fill:#ff49de;fill-opacity:1;fill-rule:evenodd;stroke-width:0.19740929;filter:url(#filter1329)" />
    <flowRoot
       transform="matrix(0.30839983,0,0,0.30839983,250.16606,-147.33423)"
       style="font-style:normal;font-weight:normal;font-size:96px;line-height:1.25;font-family:sans-serif;letter-spacing:0px;word-spacing:0px;fill:#b42676;fill-opacity:0.70499998;stroke:none"
       id="flowRoot875"
       xml:space="preserve"><flowRegion
         style="font-size:74.66666412px;fill:#b42676;fill-opacity:0.70499998"
         id="flowRegion871"><rect
           style="font-size:74.66666412px;fill:#b42676;fill-opacity:0.70499998"
           y="216.8054"
           x="85.714287"
           height="139.99998"
           width="500.00006"
           id="rect869" /></flowRegion><flowPara
         style="font-style:normal;font-variant:normal;font-weight:bold;font-stretch:normal;font-family:'Arista 2.0 Alternate';-inkscape-font-specification:'Arista 2.0 Alternate Bold';fill:#b42676;fill-opacity:0.70499998"
         id="flowPara873">NEW GAME</flowPara></flowRoot>    <flowRoot
       xml:space="preserve"
       id="flowRoot1347"
       style="font-style:normal;font-weight:normal;font-size:96px;line-height:1.25;font-family:sans-serif;letter-spacing:0px;word-spacing:0px;fill:#ffffff;fill-opacity:1;stroke:none"
       transform="matrix(0.30839983,0,0,0.30839983,249.7459,-149.64517)"><flowRegion
         id="flowRegion1343"
         style="font-size:74.66666412px;fill:#ffffff"><rect
           id="rect1341"
           width="500.00006"
           height="139.99998"
           x="85.714287"
           y="216.8054"
           style="font-size:74.66666412px;fill:#ffffff" /></flowRegion><flowPara
         id="flowPara1345"
         style="font-style:normal;font-variant:normal;font-weight:bold;font-stretch:normal;font-family:'Arista 2.0 Alternate';-inkscape-font-specification:'Arista 2.0 Alternate Bold'">NEW GAME</flowPara></flowRoot>    <path
       style="fill:#ffb4f4;stroke:none;stroke-width:0.26458332px;stroke-linecap:butt;stroke-linejoin:miter;stroke-opacity:1;fill-opacity:1"
       d="m 255.41271,-56.905436 c 1.1553,0.560395 3.39168,-8.488155 7.66525,-14.205019 2.72979,-3.651722 8.77579,-5.647738 10.43048,-8.718904 2.27054,-4.214206 -0.9109,-8.86859 -6.59454,-8.158081 -6.15022,-0.317673 -18.81853,16.024678 -17.5533,24.491778 0.36716,2.457098 3.37961,10.4558 6.05211,6.590226 z"
       id="path881"
       inkscape:connector-curvature="0"
       sodipodi:nodetypes="csscsc" />
    <path
       style="fill:#ffb4f4;fill-rule:evenodd;stroke-width:0.23766097;fill-opacity:1"
       d="m 267.29301,-47.86863 c 0,2.937638 -4.36563,7.817263 -7.38618,5.319066 -1.44895,-1.198372 -4.93486,-3.498243 -7.38619,-5.319066 -2.49886,-1.856134 3.30691,-5.319069 7.38619,-5.319067 4.07928,2e-6 7.38618,2.381428 7.38618,5.319067 z"
       id="path887"
       inkscape:connector-curvature="0"
       sodipodi:nodetypes="sssss" />
    <path
       sodipodi:nodetypes="csscsc"
       inkscape:connector-curvature="0"
       id="path890"
       d="m 259.96127,39.534989 c 1.1553,0.560395 3.39168,-8.488155 7.66525,-14.205019 2.72979,-3.651722 8.77579,-5.647739 10.43048,-8.718907 2.27054,-4.214208 -0.9109,-8.8685934 -6.59454,-8.1580843 -6.15022,-0.3176731 -18.81853,16.0246843 -17.5533,24.4917843 0.36716,2.457098 3.37961,10.4558 6.05211,6.590226 z"
       style="fill:#ffb4f4;fill-opacity:1;stroke:none;stroke-width:0.26458332px;stroke-linecap:butt;stroke-linejoin:miter;stroke-opacity:1" />
    <path
       sodipodi:nodetypes="sssss"
       inkscape:connector-curvature="0"
       id="path892"
       d="m 275.22503,51.391342 c 0,2.937638 -7.74909,4.997716 -10.76964,2.499519 -1.44895,-1.198372 -4.93486,-3.498243 -7.38619,-5.319066 -2.49886,-1.856134 3.30691,-5.319069 7.38619,-5.319067 4.07928,2e-6 10.76964,5.200975 10.76964,8.138614 z"
       style="fill:#ffb4f4;fill-opacity:1;fill-rule:evenodd;stroke-width:0.23766097" />
    <path
       style="fill:#ffb4f4;fill-opacity:1;stroke:none;stroke-width:0.26458332px;stroke-linecap:butt;stroke-linejoin:miter;stroke-opacity:1"
       d="m 262.21691,135.96348 c 1.1553,0.5604 3.39168,-8.48815 7.66525,-14.20501 2.72979,-3.65173 8.77579,-5.64774 10.43048,-8.71891 2.27054,-4.21421 -0.9109,-8.86859 -6.59454,-8.15809 -6.15022,-0.31767 -18.81853,16.02469 -17.5533,24.49179 0.36716,2.4571 3.37961,10.4558 6.05211,6.59022 z"
       id="path894"
       inkscape:connector-curvature="0"
       sodipodi:nodetypes="csscsc" />
    <path
       style="fill:#ffb4f4;fill-opacity:1;fill-rule:evenodd;stroke-width:0.23766097"
       d="m 277.48067,147.81984 c 0,2.93764 -7.74909,4.99771 -10.76964,2.49952 -1.44895,-1.19838 -4.93486,-3.49825 -7.38619,-5.31907 -2.49886,-1.85613 3.30691,-5.31907 7.38619,-5.31907 4.07928,1e-5 10.76964,5.20098 10.76964,8.13862 z"
       id="path896"
       inkscape:connector-curvature="0"
       sodipodi:nodetypes="sssss" />
    <path
       style="fill:#ff49de;fill-opacity:1;fill-rule:evenodd;stroke-width:0.19740929;filter:url(#filter1329)"
       d="m 301.18146,10.502682 c 30.38982,-6.2189641 61.17825,-7.3448581 93.06439,0 12.94111,2.980939 36.82231,11.447074 36.82231,24.727079 0,13.280006 -23.75552,25.585299 -36.82231,23.215178 -30.12043,-5.463399 -61.47374,-3.463592 -93.06439,0 -13.2009,1.447343 -39.09018,-7.667314 -39.09018,-20.94732 0,-13.280005 26.0798,-24.332497 39.09018,-26.994937 z"
       id="path934"
       inkscape:connector-curvature="0"
       sodipodi:nodetypes="sssssss" />
    <flowRoot
       xml:space="preserve"
       id="flowRoot908"
       style="font-style:normal;font-weight:normal;font-size:96px;line-height:1.25;font-family:sans-serif;letter-spacing:0px;word-spacing:0px;fill:#b42676;fill-opacity:0.70499998;stroke:none"
       transform="matrix(0.30839983,0,0,0.30839983,253.54952,-49.214006)"><flowRegion
         id="flowRegion904"
         style="font-size:74.66666412px;fill:#b42676;fill-opacity:0.70499998"><rect
           id="rect902"
           width="500.00006"
           height="139.99998"
           x="85.714287"
           y="216.8054"
           style="font-size:74.66666412px;fill:#b42676;fill-opacity:0.70499998" /></flowRegion><flowPara
         id="flowPara906"
         style="font-style:normal;font-variant:normal;font-weight:bold;font-stretch:normal;font-family:'Arista 2.0 Alternate';-inkscape-font-specification:'Arista 2.0 Alternate Bold';fill:#b42676;fill-opacity:0.70499998">NEW GAME</flowPara></flowRoot>    <flowRoot
       transform="matrix(0.30839983,0,0,0.30839983,253.12936,-51.524946)"
       style="font-style:normal;font-weight:normal;font-size:96px;line-height:1.25;font-family:sans-serif;letter-spacing:0px;word-spacing:0px;fill:#ffffff;fill-opacity:1;stroke:none"
       id="flowRoot916"
       xml:space="preserve"><flowRegion
         style="font-size:74.66666412px;fill:#ffffff"
         id="flowRegion912"><rect
           style="font-size:74.66666412px;fill:#ffffff"
           y="216.8054"
           x="85.714287"
           height="139.99998"
           width="500.00006"
           id="rect910" /></flowRegion><flowPara
         style="font-style:normal;font-variant:normal;font-weight:bold;font-stretch:normal;font-family:'Arista 2.0 Alternate';-inkscape-font-specification:'Arista 2.0 Alternate Bold'"
         id="flowPara914">NEW GAME</flowPara></flowRoot>    <path
       sodipodi:nodetypes="sssssss"
       inkscape:connector-curvature="0"
       id="path936"
       d="m 300.61755,97.344719 c 30.38982,-6.218964 61.17825,-7.344858 93.06439,0 12.94111,2.980941 36.82231,11.447071 36.82231,24.727081 0,13.28 -23.75552,25.5853 -36.82231,23.21518 -30.12043,-5.4634 -61.47374,-3.4636 -93.06439,0 -13.2009,1.44734 -39.09018,-7.66732 -39.09018,-20.94732 0,-13.28001 26.0798,-24.3325 39.09018,-26.994941 z"
       style="fill:#ff49de;fill-opacity:1;fill-rule:evenodd;stroke-width:0.19740929;filter:url(#filter1329)" />
    <flowRoot
       transform="matrix(0.30839983,0,0,0.30839983,257.49689,40.447578)"
       style="font-style:normal;font-weight:normal;font-size:96px;line-height:1.25;font-family:sans-serif;letter-spacing:0px;word-spacing:0px;fill:#b42676;fill-opacity:0.70499998;stroke:none"
       id="flowRoot924"
       xml:space="preserve"><flowRegion
         style="font-size:74.66666412px;fill:#b42676;fill-opacity:0.70499998"
         id="flowRegion920"><rect
           style="font-size:74.66666412px;fill:#b42676;fill-opacity:0.70499998"
           y="216.8054"
           x="85.714287"
           height="139.99998"
           width="500.00006"
           id="rect918" /></flowRegion><flowPara
         style="font-style:normal;font-variant:normal;font-weight:bold;font-stretch:normal;font-family:'Arista 2.0 Alternate';-inkscape-font-specification:'Arista 2.0 Alternate Bold';fill:#b42676;fill-opacity:0.70499998"
         id="flowPara922">NEW GAME</flowPara></flowRoot>    <flowRoot
       xml:space="preserve"
       id="flowRoot932"
       style="font-style:normal;font-weight:normal;font-size:96px;line-height:1.25;font-family:sans-serif;letter-spacing:0px;word-spacing:0px;fill:#ffffff;fill-opacity:1;stroke:none"
       transform="matrix(0.30839983,0,0,0.30839983,257.07673,38.136638)"><flowRegion
         id="flowRegion928"
         style="font-size:74.66666412px;fill:#ffffff"><rect
           id="rect926"
           width="500.00006"
           height="139.99998"
           x="85.714287"
           y="216.8054"
           style="font-size:74.66666412px;fill:#ffffff" /></flowRegion><flowPara
         id="flowPara930"
         style="font-style:normal;font-variant:normal;font-weight:bold;font-stretch:normal;font-family:'Arista 2.0 Alternate';-inkscape-font-specification:'Arista 2.0 Alternate Bold'">NEW GAME</flowPara></flowRoot>    <path
       style="fill:#000000;fill-opacity:1;fill-rule:evenodd;stroke-width:1.83860767"
       d="M 2398.2461 -316.16016 L 2398.2461 -137.04102 L 2935.3438 -137.04102 L 2935.3438 -316.16016 L 2398.2461 -316.16016 z M 2408.3809 -303.32812 L 2922.0273 -303.32812 L 2922.0273 -149.87305 L 2408.3809 -149.87305 L 2408.3809 -303.32812 z "
       id="rect980"
       transform="scale(0.26458333)" />
    <flowRoot
       xml:space="preserve"
       id="flowRoot1036"
       style="font-style:normal;font-weight:normal;font-size:74.66666412px;line-height:1.25;font-family:sans-serif;letter-spacing:0px;word-spacing:0px;fill:#ffffff;fill-opacity:0.70980392;stroke:none"
       transform="matrix(0.26458333,0,0,0.26458333,621.68307,-127.76289)"><flowRegion
         id="flowRegion1032"
         style="font-size:74.66666412px;fill:#ffffff;fill-opacity:0.70980392"><rect
           id="rect1030"
           width="500.00006"
           height="139.99998"
           x="85.714287"
           y="216.8054"
           style="font-size:74.66666412px;fill:#ffffff;fill-opacity:0.70980392" /></flowRegion><flowPara
         id="flowPara1034"
         style="font-style:normal;font-variant:normal;font-weight:bold;font-stretch:normal;font-family:sans-serif;-inkscape-font-specification:'sans-serif Bold';fill:#ffffff;fill-opacity:0.70980392">NEW GAME</flowPara></flowRoot>    <flowRoot
       transform="matrix(0.26458333,0,0,0.26458333,621.61412,-128.1691)"
       style="font-style:normal;font-weight:normal;font-size:74.66666412px;line-height:1.25;font-family:sans-serif;letter-spacing:0px;word-spacing:0px;fill:#333333;fill-opacity:0.70980394;stroke:none;"
       id="flowRoot1756-3"
       xml:space="preserve"><flowRegion
         style="font-size:74.66666412px;fill:#333333;fill-opacity:0.70980394;"
         id="flowRegion1752-9"><rect
           style="font-size:74.66666412px;fill:#333333;fill-opacity:0.70980394;"
           y="216.8054"
           x="85.714287"
           height="139.99998"
           width="500.00006"
           id="rect1750-3" /></flowRegion><flowPara
         style="font-style:normal;font-variant:normal;font-weight:bold;font-stretch:normal;font-family:sans-serif;-inkscape-font-specification:'sans-serif Bold';fill:#333333;fill-opacity:0.70980394;"
         id="flowPara1754-0">NEW GAME</flowPara></flowRoot>    <g
       id="g1165"
       style="fill:#784421;stroke:none"
       transform="translate(1.5456332e-4)">
      <path
         id="path1122"
         transform="scale(0.26458333)"
         d="m 3287.7676,-328.7832 c -0.7886,0.50302 -1.5897,0.98952 -2.3672,1.50781 -1.5071,1.00471 -3.5896,1.46052 -4.5215,3.01367 -0.7754,1.2923 0.3655,3.05943 0,4.52149 -0.1723,0.68923 -1.0054,1.00351 -1.5078,1.50585 -1.507,1.50707 -2.6133,3.56834 -4.5195,4.52149 -0.8987,0.44932 -2.2438,-0.6432 -3.0157,0 -2.4711,2.05924 -3.5851,5.4418 -6.0273,7.53516 -1.2062,1.03384 -3.0466,0.91782 -4.5215,1.50781 -2.0859,0.83436 -4.0179,2.00897 -6.0273,3.01367 -1.0047,0.50236 -1.926,1.23538 -3.0157,1.50781 -0.9747,0.24367 -2.0808,-0.37315 -3.0136,0 -1.6818,0.67269 -2.8398,2.34099 -4.5215,3.01367 -0.9329,0.37316 -2.0808,-0.37315 -3.0137,0 -1.6817,0.67268 -2.8397,2.34098 -4.5215,3.01368 -0.9328,0.37315 -2.0389,-0.24367 -3.0136,0 -1.0898,0.27244 -1.9481,1.15257 -3.0137,1.50781 -0.4766,0.15885 -1.0204,-0.12185 -1.5078,0 -1.5411,0.38529 -3.0144,1.0035 -4.5215,1.50586 -1.507,0.50235 -3.0465,0.91782 -4.5215,1.50781 -1.0429,0.41718 -1.9122,1.28754 -3.0137,1.50781 -8.6319,1.72639 -0.9325,-4.13253 -12.0566,4.51953 -2.2431,1.74466 -3.7291,4.35787 -6.0274,6.0293 -2.8413,2.06648 -5.8911,3.85749 -9.0429,5.43555 v 53.36328 c 0.2963,-0.67183 0.9277,-1.24119 1.5078,-1.53125 0.4493,-0.22466 1.2813,0.44932 1.5059,0 0.4492,-0.89864 -0.3179,-2.06052 0,-3.01367 1.5678,-4.70403 1.0062,0.50356 3.0156,-1.50586 0.7943,-0.7943 0.8827,-2.08099 1.5058,-3.01563 0.7881,-1.18224 2.3783,-1.7428 3.0137,-3.01367 1.856,-3.71183 -4.3739,1.36019 1.5078,-4.52148 0.3552,-0.35524 1.0313,0.15885 1.5078,0 1.0657,-0.35522 2.2194,-0.71157 3.0137,-1.50586 0.3553,-0.35522 -0.3553,-1.15258 0,-1.50782 0.7943,-0.79428 2.079,-0.88471 3.0137,-1.50781 3.1969,-2.1313 2.0562,-1.75401 0.998,-1.28711 0.5935,-0.28028 1.3085,-0.61906 3.5235,-1.72656 0.591,-0.39407 1.0055,-1.0035 1.5078,-1.50586 0,-0.50235 -0.3553,-1.15261 0,-1.50781 0.3553,-0.35524 1.1506,0.3552 1.5058,0 0.3553,-0.35522 -0.2249,-1.0585 0,-1.50781 0.3177,-0.63544 1.0054,-1.00351 1.5078,-1.50586 0.5023,-0.50236 0.8705,-1.19011 1.5059,-1.50782 0.4494,-0.22465 1.0585,0.22466 1.5078,0 1.62,-0.81002 2.9683,-2.08178 4.5215,-3.01367 5.3286,-3.19712 1.0733,0.17418 9.043,-3.01367 0.6596,-0.26385 0.8704,-1.1901 1.5058,-1.50781 1.4209,-0.71044 3.0466,-0.91783 4.5215,-1.50781 1.043,-0.41719 1.9239,-1.23344 3.0137,-1.50586 0.9747,-0.24367 2.0827,0.37315 3.0156,0 1.6817,-0.67268 2.8994,-2.2056 4.5195,-3.01563 0.4493,-0.22465 1.0413,0.18656 1.5079,0 2.0858,-0.83436 3.896,-2.30323 6.0273,-3.01367 0.9532,-0.31771 2.1433,0.49848 3.0156,0 2.7929,-1.5959 5.0234,-4.01792 7.5352,-6.02734 1.0047,-1.00472 1.8315,-2.22552 3.0137,-3.01368 1.8692,-1.24619 3.9414,-2.18125 6.0273,-3.01562 0.4665,-0.18656 1.0055,0 1.5078,0 3.0141,-1.50706 6.0289,-3.01443 9.043,-4.52149 1.6907,-1.47939 1.425,-4.43876 3.0136,-6.02734 1.1233,-1.1233 3.0466,-0.91783 4.5215,-1.50781 1.043,-0.41719 2.009,-1.0035 3.0137,-1.50586 1.0048,-0.50235 2.115,-0.83383 3.0137,-1.50781 3.0025,-2.25193 2.3814,-3.60951 6.0293,-4.52149 0.9747,-0.24366 2.0389,0.24367 3.0136,0 1.0897,-0.27244 2.009,-1.00351 3.0137,-1.50586 1.0047,0 2.0304,0.19703 3.0156,0 1.5578,-0.31155 3.0125,-1.00545 4.5196,-1.50781 1.0047,-0.50235 1.9259,-1.23538 3.0156,-1.50781 0.9748,-0.24367 2.0605,0.3177 3.0137,0 0.674,-0.22466 1.188,-0.87043 1.5058,-1.50586 0.2997,-0.59926 0,-6.0273 0,-6.0293 -0.6231,-0.93464 -2.5113,-0.50115 -3.0136,-1.50586 -0.034,-0.07 -0.2767,-8.2135 0,-9.04297 0.2246,-0.67398 1.3354,-0.81858 1.5078,-1.50781 0.3654,-1.46206 -0.836,-3.26558 0,-4.51953 0.5573,-0.83597 2.3032,0.71044 3.0136,0 0.1484,-0.14836 0.1176,-0.78913 0.059,-1.50781 z m 94.8594,0 c -0.3324,0.46712 -0.6181,0.9573 -0.7754,1.50781 -0.552,1.93211 0.2842,4.03811 0,6.02734 -0.2247,1.57262 -1.1207,2.98034 -1.5059,4.52149 -0.6213,2.48504 -0.6084,5.13673 -1.5078,7.53515 -0.636,1.69594 -2.341,2.83977 -3.0137,4.52149 -2.8716,7.17891 4.8573,-2.01256 -1.5078,7.53515 -1.1822,1.77337 -3.4249,2.69391 -4.5215,4.52149 -0.5169,0.86153 0.7104,2.30323 0,3.01367 -1.4209,1.42087 -4.3554,-1.11463 -6.0273,0 -0.9347,0.62309 -0.6093,2.33969 -1.5078,3.01367 -1.2709,0.95315 -3.3134,0.47397 -4.5196,1.50782 -2.4423,2.09334 -3.4559,5.60517 -6.0293,7.53515 -1.6569,1.24277 -4.9296,-0.24862 -6.0273,1.50781 -1.8828,3.01225 -0.2939,7.21051 -1.5078,10.54883 -0.8584,2.36055 -2.8527,4.15002 -4.5215,6.02735 -1.9027,2.14053 -8.105,8.97011 -12.0566,10.55078 -0.9329,0.37315 -2.0391,-0.24367 -3.0137,0 -12.3621,3.09051 11.8958,0.0224 -9.043,3.01367 -2.9838,0.42626 -6.0854,-0.59112 -9.041,0 -1.1015,0.22029 -1.9891,1.0516 -3.0156,1.50781 -3.4961,1.55381 -6.8579,3.51289 -10.5489,4.51953 -1.9385,0.52872 -4.0381,-0.28418 -6.0273,0 -3.6205,0.51721 -6.7178,3.26791 -10.5508,3.01563 -2.9838,0.42626 -6.0854,-0.59112 -9.041,0 -4.6955,0.93912 -3.6057,4.39002 -7.5371,7.53515 -0.4862,0.38897 -4.9788,-0.34956 -6.0273,0 -1.7184,0.57278 -1.7938,3.92202 -4.5215,3.01368 -1.4779,0.29555 -3.0145,0 -4.5215,0 h -7.5352 c -1.507,0 -3.2292,-0.77539 -4.5215,0 -1.5532,0.93188 -1.7328,3.24072 -3.0136,4.52148 -0.3552,0.3552 -1.0036,0 -1.5059,0 h -3.0156 -9.041 c -1.0047,0 -2.117,-0.44932 -3.0157,0 -2.2465,1.1233 -3.7187,3.53205 -6.0273,4.52148 -1.3853,0.59367 -3.0296,-0.21312 -4.5215,0 -0.5044,0.072 -6.9629,2.19927 -9.0429,1.50586 -1.0658,-0.35522 -1.8904,-1.50586 -3.0137,-1.50586 v 31.77149 c 1.7386,-0.0288 3.652,-0.12305 4.5215,-0.12305 h 16.5781 c 1.3468,0 7.0548,-0.24011 7.5351,0 0.6355,0.31772 0.832,1.28121 1.5059,1.50586 1.7743,0.59142 7.0433,-0.49992 9.043,0 6.9269,1.73173 0.3422,1.50781 4.5215,1.50781 h 6.0273 c 0.5023,0 1.1525,-0.35523 1.5078,0 0.3553,0.35522 -0.4493,1.28121 0,1.50586 1.7973,0.89864 4.3574,-1.11462 6.0293,0 0.9346,0.6231 0.7116,2.22134 1.5059,3.01563 5.8816,5.88167 0.8095,-0.35006 4.5215,1.50586 0.6354,0.31771 0.8724,1.1901 1.5078,1.50781 0.4492,0.22466 1.0034,0 1.5058,0 1.0047,0 2.0606,-0.31771 3.0137,0 0.674,0.22466 0.8723,1.19011 1.5078,1.50781 0.4493,0.22466 1.0313,-0.15885 1.5078,0 1.0657,0.35521 1.948,1.15062 3.0137,1.50586 0.4765,0.15886 1.0585,-0.22465 1.5078,0 0.6355,0.31772 0.8319,1.28316 1.5059,1.50781 0.953,0.31771 2.0605,-0.3177 3.0136,0 0.674,0.22467 0.8725,1.18816 1.5079,1.50586 2.8163,1.40826 0.1971,-1.40824 3.0136,0 0.6355,0.31772 0.8723,1.19011 1.5078,1.50782 0.8986,0.44932 2.3033,-0.71043 3.0137,0 2.0094,2.00942 -3.1963,1.44566 1.5078,3.01367 0.9531,0.31771 2.009,0 3.0137,0 0.5024,0 1.0584,-0.22466 1.5078,0 0.6354,0.31772 0.8705,1.1901 1.5059,1.50781 0.4494,0.22466 1.0585,-0.22465 1.5078,0 0.6354,0.31771 0.8703,1.18815 1.5058,1.50586 0.4493,0.22466 1.0055,0 1.5078,0 h 1.5079 9.041 6.0293 3.0136 c 0.5023,0 1.0586,0.22466 1.5079,0 0.6355,-0.31772 0.8704,-1.18815 1.5058,-1.50586 0.8986,-0.44932 2.0625,0.31771 3.0156,0 1.0657,-0.35522 1.9481,-1.15261 3.0137,-1.50781 0.4766,-0.15886 1.0566,0.22465 1.5059,0 0.6354,-0.31772 0.8723,-1.18815 1.5078,-1.50586 0.8892,-0.4446 3.4849,0.34552 4.5215,0 2.1313,-0.71044 3.896,-2.30518 6.0273,-3.01563 0.4766,-0.15885 1.1525,0.35524 1.5078,0 0.3553,-0.35522 -0.3553,-1.15062 0,-1.50586 0.7104,-0.71042 2.3033,0.71045 3.0137,0 0.7943,-0.79428 0.7135,-2.21938 1.5078,-3.01367 0.121,-0.12102 6.349,0 7.5352,0 h 19.5918 7.5351 c 1.0047,0 2.0605,0.31771 3.0137,0 1.0657,-0.35522 2.0791,-0.88471 3.0137,-1.50781 3.1969,-2.1313 2.0562,-1.75401 0.998,-1.28711 0.5934,-0.28028 1.3084,-0.61906 3.5234,-1.72656 0.5912,-0.39408 0.8723,-1.19011 1.5079,-1.50781 0.4492,-0.22466 1.1505,0.35523 1.5058,0 0.7943,-0.79429 0.8847,-2.07904 1.5078,-3.01368 0.3941,-0.59112 1.2833,-0.83383 1.5078,-1.50781 0.3179,-0.95315 -0.5572,-2.17771 0,-3.01367 0.6231,-0.93465 2.3906,-0.57317 3.0137,-1.50781 0.5573,-0.83597 -0.1651,-2.02264 0,-3.01367 0.3405,-2.04309 0.7385,-4.10424 1.5078,-6.02735 0.2638,-0.65963 0.799,-1.4371 1.5059,-1.50781 4.4988,-0.44987 9.1161,0.80878 13.5644,0 1.398,-0.25417 1.9222,-2.10405 3.0137,-3.01367 5.4429,-4.53569 6.195,-3.81847 10.5488,-9.04297 1.1595,-1.39147 1.5667,-3.43472 3.0157,-4.52149 0.8038,-0.60282 2.3032,0.71045 3.0136,0 1.5886,-1.58857 1.2594,-4.62391 3.0137,-6.02734 1.1768,-0.94146 3.0349,0.24775 4.5215,0 1.5669,-0.26117 3.1422,-0.71965 4.5215,-1.50781 2.1808,-1.24619 3.7186,-3.53206 6.0273,-4.52149 1.3852,-0.59366 3.0219,0.14997 4.5215,0 7.0691,-0.70691 14.0133,-2.50751 21.0996,-3.01367 3.5076,-0.25054 7.1562,0.92525 10.5488,0 2.4233,-0.66089 3.8317,-3.30166 6.0274,-4.52148 2.3648,-1.3138 5.1883,-1.67149 7.5371,-3.01368 1.2337,-0.70493 1.7953,-2.28264 3.0137,-3.01367 1.3622,-0.81732 3.2809,-0.51542 4.5215,-1.50781 1.4143,-1.13148 1.9608,-3.0476 3.0136,-4.52148 1.4599,-2.04392 2.6545,-4.34706 4.5215,-6.02735 3.2121,-2.89087 6.9532,-5.13806 10.5488,-7.53515 0.9347,-0.62309 2.2194,-0.71353 3.0137,-1.50782 1.2807,-1.28075 1.7329,-3.24072 3.0137,-4.52148 0.7943,-0.79429 2.1385,-0.80414 3.0156,-1.50586 1.6643,-1.33142 2.8572,-3.19007 4.5215,-4.52148 0.8772,-0.70173 2.2195,-0.71352 3.0137,-1.50782 1.2808,-1.28075 1.5992,-3.38999 3.0136,-4.52148 1.2405,-0.99238 3.2506,-0.55271 4.5215,-1.50586 0.8986,-0.67398 0.7135,-2.22134 1.5078,-3.01563 2.5615,-2.56151 6.778,-3.19862 9.041,-6.02734 0.9924,-1.24048 0.2673,-3.5291 1.5079,-4.52148 1.6174,-1.29391 4.4362,-0.17987 6.0273,-1.50586 1.7259,-1.43824 1.5535,-4.32355 3.0156,-6.0293 1.6346,-1.90708 3.9835,-3.06154 6.0274,-4.52148 1.4739,-1.05278 3.39,-1.59932 4.5215,-3.01368 0.9924,-1.24047 0.2349,-3.56833 1.5058,-4.52148 1.2056,-0.90424 3.2292,0.77538 4.5215,0 1.5531,-0.93189 1.7348,-3.24072 3.0156,-4.52149 1.2808,-1.28075 3.0124,-2.00896 4.5196,-3.01367 0.5023,0 1.0584,0.22466 1.5078,0 0.6354,-0.31772 0.8338,-1.28315 1.5078,-1.50781 0.9532,-0.31771 2.0089,0 3.0137,0 h 3.0136 16.5782 21.0996 10.5488 c 1.0048,0 2.0284,0.19703 3.0137,0 1.5577,-0.31154 2.9802,-1.12057 4.5214,-1.50586 0.4873,-0.12185 1.0313,0.15885 1.5079,0 1.0656,-0.35522 1.9238,-1.23538 3.0136,-1.50781 0.9747,-0.24367 2.009,0 3.0137,0 1.5071,0 3.0261,0.18693 4.5215,0 2.5417,-0.31771 5.1051,-0.69584 7.5351,-1.50586 1.1073,-0.36907 2.134,-0.93058 3.1543,-1.50781 h -162.9023 c -1.0047,1.00471 -1.8334,2.22552 -3.0156,3.01367 -0.836,0.55732 -2.3032,-0.71043 -3.0137,0 -3.1181,3.11818 4.7642,-0.12235 -1.5078,3.01367 -0.4494,0.22466 -1.0566,-0.22465 -1.5059,0 -0.6354,0.31772 -0.9167,1.11373 -1.5078,1.50781 -0.9346,0.6231 -2.0791,0.88473 -3.0137,1.50782 -0.591,0.39408 -1.0054,1.00351 -1.5078,1.50585 0,0.50235 0.3553,1.15258 0,1.50782 -0.7943,0.79429 -2.079,0.88471 -3.0136,1.50781 -2.0733,1.38218 -1.5496,2.32331 -3.0137,4.51953 -0.7882,1.18224 -2.2256,1.83339 -3.0137,3.01563 -0.6231,0.93464 -0.5732,2.39057 -1.5078,3.01367 -0.836,0.55731 -2.1778,-0.55732 -3.0137,0 -0.9346,0.62309 -0.8847,2.07903 -1.5078,3.01367 -0.3941,0.59112 -0.9375,1.08155 -1.5058,1.50781 -1.4491,1.08676 -3.2407,1.73291 -4.5215,3.01367 -0.7943,0.79429 -0.8338,2.11504 -1.5078,3.01368 -0.8526,1.1367 -2.0089,2.00896 -3.0137,3.01367 -1.0047,1.0047 -1.877,2.16311 -3.0137,3.01562 -6.179,4.63418 0.099,-3.16467 -6.0293,6.02735 -0.3553,0.35523 -1.2046,-0.40188 -1.5058,0 -1.348,1.79728 -1.6123,4.275 -3.0157,6.02929 -0.7017,0.87716 -2.0789,0.88277 -3.0136,1.50586 -4.3122,2.87501 2.308,0.2819 -4.5215,3.01368 -1.4749,0.58997 -3.2506,0.55465 -4.5215,1.50781 -0.8986,0.67398 -0.8319,2.11504 -1.5059,3.01367 -0.8525,1.1367 -2.1611,1.87697 -3.0136,3.01367 -3.2603,4.34704 -5.6486,9.32138 -9.043,13.56445 -1.7753,2.21904 -4.453,3.66482 -6.0293,6.0293 -1.5592,2.33863 2.5613,0.98009 -1.5059,3.01367 -0.4493,0.22466 -1.1525,-0.35523 -1.5078,0 -0.3553,0.35522 0.1217,1.01851 0,1.50586 -0.3853,1.54116 -0.6246,3.1997 -1.5058,4.52149 -0.2786,0.41797 -1.1526,-0.35524 -1.5078,0 -1.2809,1.28075 -2.009,3.01442 -3.0137,4.52148 0,0.50235 0.2785,1.08984 0,1.50781 -0.7881,1.18224 -2.106,1.92214 -3.0156,3.01368 -3.0738,3.68845 -4.2326,5.27077 -4.6211,5.9082 -0.3165,0.0647 -1.3871,0.70851 -4.42,3.13476 -7.4569,5.96553 1.8038,-0.29792 -6.0293,7.53516 -1.5885,1.58859 -4.23,1.66571 -6.0273,3.01367 -1.7051,1.27879 -2.7481,3.33925 -4.5215,4.52149 -5.6071,3.73804 -0.9325,0.6086 -4.5215,1.50586 -3.0823,0.77057 -5.9274,2.39252 -9.0429,3.01562 -0.9852,0.19703 -2.039,-0.24366 -3.0137,0 -1.0898,0.27244 -1.924,1.23343 -3.0137,1.50586 -0.9747,0.24367 -2.0284,-0.19703 -3.0137,0 -1.5576,0.31155 -2.9544,1.24665 -4.5214,1.50781 -2.8442,0.47405 -6.1959,-0.56942 -9.043,0 -1.5578,0.31155 -2.9638,1.19432 -4.5215,1.50586 -2.463,0.4926 -5.0576,-0.41293 -7.5351,0 -3.6075,0.60124 -6.7329,3.15834 -10.5489,3.01563 -0.991,0.16516 -2.0089,0 -3.0136,0 h -6.0293 c -1.5072,0 -3.0437,-0.29556 -4.5215,0 -1.1015,0.22029 -1.924,1.23343 -3.0137,1.50586 -2.4368,0.6092 -5.0722,-0.4926 -7.5352,0 -1.1015,0.22029 -1.8989,1.3685 -3.0136,1.50781 -2.9908,0.37383 -6.0438,-0.29991 -9.043,0 -2.0609,0.20609 -3.972,1.25092 -6.0273,1.50781 -1.9939,0.24922 -4.0198,0 -6.0293,0 -1.507,0 -3.0349,0.24775 -4.5215,0 -1.5669,-0.26116 -2.9545,-1.24665 -4.5215,-1.50781 -1.4865,-0.24775 -3.0575,0.36552 -4.5195,0 -0.6893,-0.17231 -0.8339,-1.28316 -1.5078,-1.50781 -0.9532,-0.31771 -2.0809,0.37315 -3.0137,0 -1.6818,-0.67269 -3.0145,-2.00897 -4.5215,-3.01367 -0.5024,-0.50235 -0.8724,-1.19011 -1.5078,-1.50782 -0.8986,-0.44932 -2.3033,0.71044 -3.0137,0 -0.2124,-0.21254 -0.1546,-4.2104 0,-4.51953 0.3177,-0.63544 1.19,-0.87237 1.5078,-1.50781 1.0394,-2.07878 -1.8263,-1.34757 1.5059,-3.01367 0.4493,-0.22466 1.0584,0.22465 1.5078,0 0.6354,-0.31771 0.8724,-1.19011 1.5078,-1.50782 0.4494,-0.22465 1.1506,0.35524 1.5059,0 0.3552,-0.35522 0,-1.00351 0,-1.50585 1.5071,-0.50235 3.0144,-1.00547 4.5215,-1.50782 0.9851,-0.19702 2.0089,0 3.0136,0 h 9.043 c 1.0047,0 2.0606,0.31771 3.0137,0 0.674,-0.22466 0.8338,-1.28315 1.5078,-1.50781 0.01,-0.002 4.5215,0.001 4.5215,0 0.3552,-0.35521 -0.4766,-1.34701 0,-1.50586 1.4296,-0.47658 3.0124,0 4.5195,0 h 9.043 c 1.0047,0 2.0604,0.31771 3.0136,0 1.0657,-0.35522 2.0811,-0.88472 3.0157,-1.50781 0.5911,-0.39408 0.8318,-1.28316 1.5058,-1.50781 0.9531,-0.31771 2.0109,0 3.0156,0 0.5024,0 1.0566,0.22465 1.5059,0 0.6354,-0.31772 0.9167,-1.11178 1.5078,-1.50586 0.9347,-0.6231 2.079,-0.88472 3.0137,-1.50782 0.5911,-0.39408 0.8724,-1.18815 1.5078,-1.50586 0.4494,-0.22465 1.0565,0.22466 1.5059,0 0.6353,-0.31771 0.8723,-1.1901 1.5078,-1.50781 0.4493,-0.22465 1.1506,0.35524 1.5058,0 0.3553,-0.35521 -0.3552,-1.15261 0,-1.50781 0.3553,-0.35524 1.0054,0 1.5078,0 1.5071,0 3.0437,0.29556 4.5215,0 2.0016,-0.40033 9.2431,-5.04794 10.5489,-6.02734 2.4422,-1.83159 3.0202,-5.03294 4.5214,-7.53516 0.932,-1.55315 1.9269,-3.07247 3.0137,-4.52149 0.4262,-0.56834 1.19,-0.87237 1.5078,-1.50781 0.2249,-0.44932 -0.3553,-1.15066 0,-1.50586 0.3552,-0.35523 1.1526,0.3552 1.5078,0 0.3553,-0.35522 -0.3012,-1.10592 0,-1.50781 1.2788,-1.70504 3.2408,-2.81644 4.5196,-4.52148 0.3012,-0.40188 -0.2786,-1.08789 0,-1.50586 0.788,-1.18224 2.1631,-1.87893 3.0156,-3.01563 0.674,-0.89864 0.7116,-2.21938 1.5058,-3.01367 0.3552,-0.35524 1.0586,0.22466 1.5079,0 0.6355,-0.31772 0.8704,-1.18815 1.5058,-1.50586 0.4493,-0.22465 1.2066,0.40188 1.5078,0 1.348,-1.79728 1.6657,-4.23201 3.0137,-6.0293 0.3014,-0.40188 1.0413,0.18656 1.5078,0 2.0859,-0.83436 4.4388,-1.42509 6.0274,-3.01367 0.7105,-0.71044 -0.2438,-2.03896 0,-3.01367 0.2725,-1.08976 0.8847,-2.081 1.5078,-3.01562 1.1822,-1.77337 3.2427,-2.81449 4.5215,-4.51954 0.674,-0.89864 0.5712,-2.39253 1.5058,-3.01562 0.8361,-0.55731 2.2119,0.60283 3.0156,0 1.449,-1.08676 1.4606,-3.58959 3.0137,-4.52149 1.2923,-0.77537 3.1735,0.67398 4.5215,0 1.0047,-0.50236 0.7116,-2.21938 1.5059,-3.01367 0.7943,-0.79429 2.2213,-0.71156 3.0156,-1.50586 1.7761,-1.77609 2.7454,-4.25321 4.5215,-6.02929 0.7943,-0.79431 2.2193,-0.71157 3.0136,-1.50586 1.2808,-1.28076 2.009,-3.01443 3.0137,-4.52149 1.0047,-0.50236 2.2194,-0.71351 3.0137,-1.50781 1.7761,-1.77609 2.8527,-4.15003 4.5215,-6.02734 8.3201,-9.36031 6.11,-5.72424 15.0703,-13.56446 1.604,-1.40348 2.7978,-3.2679 4.5215,-4.52148 1.4774,-1.07451 3.0181,-2.05565 4.5742,-3.01367 z m 353.3847,63.97656 c -1.4946,0.82154 -2.875,1.92286 -4.5195,2.33398 -0.9748,0.24367 -2.1169,-0.44931 -3.0156,0 -1.2708,0.63544 -1.8315,2.22552 -3.0137,3.01368 -1.8693,1.24619 -4.0635,1.92457 -6.0274,3.01562 -2.5605,1.42254 -4.7562,3.59323 -7.5351,4.51953 -9.9289,3.30963 -11.1707,0.70921 -21.0996,0 -3.5075,-0.25054 -7.0323,0 -10.5488,0 -3.0143,0 -6.0473,-0.33286 -9.043,0 -1.5789,0.17543 -2.9452,1.31079 -4.5215,1.50781 -2.4924,0.31155 -5.1524,-0.79429 -7.5352,0 -3.8423,1.28077 -7.0083,4.06239 -10.5488,6.0293 -4.0196,2.23311 -7.1423,3.11546 -12.0566,4.51953 -3.9831,1.13804 -8.1028,1.78002 -12.0567,3.01563 -4.0967,1.28023 -7.8927,3.47853 -12.0566,4.51953 -5.929,1.48223 -12.355,0.89304 -18.0859,3.01562 -8.0084,2.96609 -14.9109,8.35185 -22.6055,12.05664 -5.8841,2.83309 -12.1999,4.70208 -18.084,7.53516 -7.6946,3.7048 -15.0359,8.10631 -22.6074,12.05664 -3.9836,2.0784 -8.228,3.67248 -12.0547,6.02735 -2.7395,1.68582 -4.7253,4.46715 -7.5371,6.02929 -4.1876,2.32643 -15.4187,1.50586 -19.5918,1.50586 -1.0047,0 -2.039,-0.24366 -3.0137,0 -1.0898,0.27244 -1.9481,1.15258 -3.0137,1.50781 -1.965,0.65499 -4.1235,0.68995 -6.0273,1.50586 -1.6648,0.7135 -2.9014,2.20561 -4.5215,3.01563 -1.4209,0.71044 -3.0465,0.91587 -4.5215,1.50586 -1.0429,0.41718 -1.9239,1.23538 -3.0136,1.50781 -0.9747,0.24367 -2.0305,-0.19703 -3.0157,0 -1.5578,0.31155 -2.9784,1.12252 -4.5195,1.50781 -0.4874,0.12182 -1.0204,-0.12185 -1.5078,0 -1.5411,0.38528 -3.0465,0.91587 -4.5215,1.50586 -1.0429,0.41718 -1.924,1.23539 -3.0137,1.50781 -1.3281,0.33204 -8.1513,-0.44578 -9.0429,0 -1.62,0.81004 -2.9014,2.20366 -4.5215,3.01368 -0.4493,0.22465 -1.0565,-0.22466 -1.5059,0 -0.6354,0.31771 -0.8724,1.1901 -1.5078,1.50781 -0.979,0.48951 -6.5792,-0.47798 -7.5351,0 -0.6355,0.31771 -0.8725,1.18815 -1.5079,1.50586 -0.8986,0.44932 -2.115,-0.44932 -3.0136,0 -0.6356,0.31772 -0.8724,1.1901 -1.5078,1.50781 -0.4493,0.22466 -1.0879,-0.27866 -1.5059,0 -1.1822,0.78815 -1.8315,2.22552 -3.0137,3.01367 -0.256,0.17069 -8.078,0 -9.0429,0 -0.5023,0 -1.09,-0.27866 -1.5079,0 -1.1822,0.78816 -2.009,2.00896 -3.0136,3.01367 0,0.50236 0.3552,1.15258 0,1.50782 -0.3552,0.3552 -1.1526,-0.35524 -1.5078,0 -0.3553,0.35522 0.3552,1.15261 0,1.50781 -0.7106,0.71044 -2.115,-0.44932 -3.0137,0 -0.6354,0.31772 -1.188,0.87042 -1.5059,1.50586 -0.2249,0.44932 0.4493,1.28316 0,1.50781 -0.8987,0.44932 -2.0109,0 -3.0156,0 0,0.50236 0.3553,1.15062 0,1.50586 -0.3552,0.3552 -1.2814,-0.44932 -1.5059,0 -0.4493,0.89863 0.836,2.45832 0,3.01563 -1.254,0.83597 -3.0594,-0.36552 -4.5214,0 -1.3785,0.34462 -1.6658,2.56435 -3.0137,3.01367 -2.3199,0.77328 -4.1487,-1.31507 -6.0293,1.50586 h 189.8906 c 0.8986,-0.67398 2.1151,-0.83188 3.0137,-1.50586 1.1367,-0.85252 1.78,-2.30872 3.0137,-3.01367 2.3487,-1.34218 5.3337,-1.44323 7.5351,-3.01563 1.4739,-1.05278 1.4625,-3.58764 3.0156,-4.51953 1.2923,-0.77538 3.2676,-0.83597 4.5215,0 0.836,0.55731 -0.4493,2.11503 0,3.01367 0.2247,0.44932 1.0035,0 1.5059,0 h 4.5215 19.5918 c 2.0094,0 4.0472,0.33037 6.0293,0 1.5669,-0.26116 2.9525,-1.24665 4.5195,-1.50781 1.4865,-0.24775 3.0437,0.29556 4.5215,0 1.1015,-0.2203 1.9122,-1.28555 3.0136,-1.50586 3.2746,-0.65493 7.3117,0.80977 10.5508,0 1.3785,-0.34461 1.6657,-2.56631 3.0137,-3.01563 0.9531,-0.3177 2.0285,0.19703 3.0137,0 12.689,-2.5378 0.048,-0.0228 6.0293,-3.01367 0.4494,-0.22465 1.0292,0.15886 1.5058,0 1.0657,-0.35521 2.0109,-1.00546 3.0157,-1.50781 1.0046,0 2.0389,0.24367 3.0136,0 1.0897,-0.27244 1.948,-1.15066 3.0137,-1.50586 0.9531,-0.31771 2.3033,0.71043 3.0137,0 0.3552,-0.35522 -0.2245,-1.05849 0,-1.50781 0.3176,-0.63543 1.0054,-1.00351 1.5078,-1.50586 0.5023,-0.50236 0.8704,-1.19011 1.5058,-1.50781 0.4494,-0.22466 1.1526,0.3552 1.5079,0 0.3552,-0.35522 -0.3553,-1.15258 0,-1.50782 0.3552,-0.3552 1.0585,0.22466 1.5078,0 0.4001,-0.20007 4.3211,-4.11939 4.5215,-4.51953 0.4493,-0.89864 -0.3179,-2.06247 0,-3.01562 0.3552,-1.06566 1.1505,-1.94802 1.5058,-3.01367 0.3152,-0.94592 0,-4.81411 0,-6.02735 v -15.07226 c 0,-0.50236 -0.2245,-1.05655 0,-1.50586 0.3177,-0.63544 1.0054,-1.00547 1.5078,-1.50782 0.5024,-0.50236 0.8319,-1.28121 1.5059,-1.50585 0.9531,-0.31771 2.0409,0.24365 3.0156,0 1.0898,-0.27244 2.009,-1.00547 3.0137,-1.50782 0.5024,-0.50236 0.8338,-1.28315 1.5078,-1.50781 1.8717,-0.62389 5.5537,0.49538 7.5352,0 1.0896,-0.27244 1.948,-1.15062 3.0136,-1.50586 0.4766,-0.15885 1.0035,0 1.5059,0 1.0047,-0.50235 2.0109,-1.00546 3.0156,-1.50781 0.4766,-0.15886 1.0035,0 1.5059,0 h 3.0156 c 1.0047,0 2.039,0.24366 3.0137,0 1.0898,-0.27244 1.9479,-1.15258 3.0136,-1.50781 0.9531,-0.31771 2.1777,0.55731 3.0137,0 1.1822,-0.78816 2.009,-2.00896 3.0137,-3.01368 0.5024,0 1.0585,0.22466 1.5078,0 0.6354,-0.3177 0.8723,-1.18815 1.5078,-1.50586 0.4493,-0.22465 1.0186,0.12186 1.5059,0 1.5412,-0.38528 2.9803,-1.12252 4.5214,-1.50781 0.4875,-0.12181 1.0313,0.15886 1.5079,0 0.5328,-0.1776 1.0187,-0.46594 1.5058,-0.7539 z m -134.0586,41.49219 c 0.1573,0.004 0.554,0.0254 1.4375,0.0254 h 46.7188 c 2.0094,1.50707 4.068,2.95239 6.0293,4.52148 0.5548,0.44381 0.8704,1.19011 1.5058,1.50781 0.4493,0.22466 1.1526,-0.35523 1.5078,0 0.3553,0.35523 -0.3552,1.15066 0,1.50586 0.7535,0.75355 3.7679,-0.75352 4.5215,0 0.7943,0.79431 0.7116,2.21939 1.5059,3.01368 3.1181,3.11817 -0.1205,-4.76423 3.0156,1.50781 0.1981,0.39627 0,5.24123 0,6.0293 0,0.67872 0.2294,4.06088 0,4.51953 -0.6355,1.27087 -2.3801,1.74475 -3.0156,3.01562 -0.6028,1.20565 0.6028,3.31388 0,4.51953 -0.3177,0.63543 -1.188,0.87239 -1.5059,1.50782 -0.2249,0.44932 0.3553,1.15257 0,1.50781 -0.3552,0.3552 -1.1525,-0.35524 -1.5078,0 -0.3553,0.35522 0.2245,1.05654 0,1.50586 -0.9042,1.80847 -3.6173,2.71301 -4.5215,4.52148 -0.4493,0.89864 0.8986,2.56435 0,3.01367 -0.8986,0.44932 -2.0606,-0.3177 -3.0136,0 -4.7042,1.56801 0.5016,1.00621 -1.5079,3.01563 -0.3552,0.35524 -1.0564,-0.22466 -1.5058,0 -0.6354,0.31772 -0.8724,1.18815 -1.5078,1.50586 -0.4493,0.22465 -1.1506,-0.35524 -1.5059,0 -0.3553,0.35521 0.3553,1.15261 0,1.50781 -0.7943,0.79429 -2.2213,0.71351 -3.0156,1.50781 -0.7104,0.71043 0.7104,2.30325 0,3.01367 -0.7104,0.71045 -2.1151,-0.44931 -3.0137,0 -0.6355,0.31773 -0.8704,1.18816 -1.5058,1.50586 -0.9631,0.48152 -4.8163,-0.40435 -6.0293,0 -1.0656,0.35522 -1.948,1.15258 -3.0137,1.50782 -0.9459,0.31532 -4.8161,0 -6.0293,0 h -12.0566 -28.6329 -9.0429 -1.5078 c -0.5025,0 -1.0566,-0.22466 -1.5059,0 -0.6354,0.31771 -0.8338,1.28315 -1.5078,1.50781 -0.9531,0.31771 -2.1151,-0.44932 -3.0137,0 -0.4493,0.22466 0.3553,1.15062 0,1.50586 -0.4968,0.49679 -4.9387,-0.36352 -6.0293,0 -0.6739,0.22466 -0.8704,1.1901 -1.5058,1.50781 -0.8987,0.44932 -2.3033,-0.71044 -3.0137,0 -0.3553,0.35521 0.3553,1.15062 0,1.50586 -0.3553,0.3552 -1.1525,-0.35524 -1.5078,0 -0.3553,0.35522 0.3553,1.15261 0,1.50781 -0.7104,0.71044 -2.3033,-0.71043 -3.0137,0 -0.3553,0.35522 0.3553,1.15258 0,1.50781 -0.3553,0.35521 -1.0585,-0.22465 -1.5078,0 -1.3358,0.66789 -3.1496,3.60689 -4.5215,4.52149 -2.9243,1.94956 -4.3774,1.50586 -7.5351,1.50586 h -1.5059 c -0.5023,0 -1.1525,0.3552 -1.5078,0 -0.3553,-0.35522 0.3553,-1.15062 0,-1.50586 -0.7536,-0.75353 -3.768,0.75353 -4.5215,0 -0.3553,-0.35522 0.3553,-1.15261 0,-1.50781 -0.989,-0.989 -1.423,-0.34877 -1.5977,0.27734 -0.089,1.13633 -0.1772,0.63526 0,0 0.046,-0.58812 0.09,-1.52525 0.09,-3.29102 -0.4493,-0.89864 -2.3033,0.71044 -3.0137,0 -0.3553,-0.35522 0.1587,-1.03123 0,-1.50781 -0.3553,-1.06565 -1.1506,-1.94802 -1.5059,-3.01367 -0.3178,-0.95316 0.7104,-2.30324 0,-3.01367 -0.3552,-0.35524 -1.1525,0.35524 -1.5078,0 -0.3552,-0.35522 0.2245,-1.05849 0,-1.50781 -0.3177,-0.63543 -1.1899,-0.87239 -1.5078,-1.50782 -0.4493,-0.89864 0.3179,-2.06052 0,-3.01367 -0.3552,-1.06565 -1.1506,-1.94801 -1.5058,-3.01367 -0.2495,-0.74804 -0.1282,-4.39313 0,-4.52148 3.0136,-3.01374 -10e-5,3.01373 3.0136,0 0.4018,-0.40176 -0.4017,-4.11972 0,-4.52149 0.7105,-0.71043 2.009,0 3.0137,0 h 1.5078 19.5918 4.5215 c 0.5023,0 1.0566,0.22466 1.5059,0 0.6355,-0.31771 0.9167,-1.11178 1.5078,-1.50586 0.9345,-0.62309 2.079,-0.88472 3.0136,-1.50781 2.0899,-1.39329 3.8755,-3.22919 6.0293,-4.52148 0.4308,-0.25845 1.0566,0.22465 1.5059,0 0.6355,-0.31772 0.8724,-1.19011 1.5078,-1.50782 0.4493,-0.22465 1.1526,0.35524 1.5078,0 0.3553,-0.35522 -0.2249,-1.05654 0,-1.50586 0.3177,-0.63543 1.0036,-1.00546 1.5059,-1.50781 0.5024,-0.50235 0.9167,-1.11179 1.5078,-1.50586 0.9346,-0.6231 2.0791,-0.88471 3.0137,-1.50781 1.7677,-1.17847 3.7141,-5.01809 4.5215,-6.02734 1.6903,-2.11286 4.0855,-4.08757 6.0273,-6.0293 0.5023,-0.50236 1.19,-0.87237 1.5078,-1.50781 0.2245,-0.44933 -0.3553,-1.15066 0,-1.50586 0.7943,-0.7943 1.948,-1.15258 3.0137,-1.50782 0.4765,-0.15885 1.1525,0.35524 1.5078,0 0.7943,-0.79428 0.7116,-2.21937 1.5059,-3.01367 0.3552,-0.3552 1.2833,0.44932 1.5078,0 0.4493,-0.89864 -0.4494,-2.11503 0,-3.01367 0.2327,-0.4656 3.9823,0.26956 4.5215,0 2.7933,-1.39673 1.1043,-1.54582 1.5761,-1.5332 z"
         style="fill:url(#linearGradient1189);fill-opacity:1;stroke:none;stroke-width:0.99999994px;stroke-linecap:butt;stroke-linejoin:miter;stroke-opacity:1"
         inkscape:connector-curvature="0" />
      <path
         inkscape:connector-curvature="0"
         id="path1161"
         d="m 950.20721,-48.3124 c 1.85381,0.668073 1.38372,-1.888088 2.39247,-2.392466 0.23776,-0.118882 0.6095,0.187971 0.79748,0 0.094,-0.09398 -0.094,-0.304757 0,-0.398743 0.094,-0.09399 0.30475,0.09399 0.39873,0 0.82502,-0.825016 -1.26071,0.03225 0.39875,-0.797488 0.23779,-0.118883 0.60952,0.18797 0.79748,0 0.094,-0.09399 -0.094,-0.304761 0,-0.398743 0.0815,-0.08152 1.03815,0.07905 1.19624,0 1.65949,-0.829739 -0.42627,0.02753 0.39875,-0.797489 0.19937,-0.199374 0.99687,0.199372 1.19624,0 0.094,-0.09398 -0.094,-0.30476 0,-0.398745 0.18796,-0.187968 0.60952,0.18797 0.79748,0 0.094,-0.09399 -0.094,-0.304758 0,-0.398743 0.18798,-0.187971 0.55972,0.118882 0.7975,0 1.65947,-0.829739 -0.42629,0.02753 0.39873,-0.797489 0.18799,-0.18797 0.55973,0.118883 0.79748,0 0.16814,-0.08406 0.23064,-0.314682 0.39876,-0.398745 0.10485,-0.05242 1.38647,0 1.59498,0 0.1329,0 0.30475,-0.09398 0.39873,0 0.094,0.09399 -0.094,0.30476 0,0.398745 0.094,0.09399 0.30477,-0.09398 0.39875,0 0.094,0.09399 -0.094,0.30476 0,0.398743 0.094,0.09398 0.30475,-0.09398 0.39876,0 0.094,0.09398 0,0.26583 0,0.398746 0,0.797488 0,1.594977 0,2.392463 0,0.132916 0.094,0.30476 0,0.398745 -0.094,0.09399 -0.3393,-0.118882 -0.39876,0 -0.11887,0.237765 0.11888,0.559724 0,0.797489 -0.0594,0.118882 -0.27265,-0.04203 -0.39875,0 -0.28194,0.09398 -0.5502,0.233884 -0.79748,0.398743 -0.78994,-0.0398 -0.1886,0.587332 -0.39875,0.797488 -0.19937,0.199372 -0.99685,-0.199371 -1.19624,0 -0.094,0.09399 0.094,0.304761 0,0.398743 -0.12345,0.123471 -1.87023,-0.123468 -1.99371,0 -0.094,0.09399 0.094,0.304761 0,0.398746 -0.0959,0.09595 -1.49903,-0.09595 -1.59496,0 -0.094,0.09398 0.094,0.304758 0,0.398743 -0.094,0.09399 -0.26583,0 -0.39876,0 -0.79748,0 -1.59499,0 -2.39247,0 -0.14642,0 -1.57892,-0.01603 -1.59496,0 -0.094,0.09399 0.094,0.30476 0,0.398745 -0.094,0.09399 -0.26585,0 -0.39875,0 -0.13293,0 -0.27533,0.04936 -0.39875,0 -0.5519,-0.22076 -1.06331,-0.531659 -1.59497,-0.797488 z"
         style="fill:#784421;fill-opacity:1;stroke:none;stroke-width:0.26458332px;stroke-linecap:butt;stroke-linejoin:miter;stroke-opacity:1" />
    </g>
    <flowRoot
       transform="matrix(0.26458333,0,0,0.26458333,826.48825,-126.73691)"
       style="font-style:normal;font-variant:normal;font-weight:normal;font-stretch:normal;font-size:64px;line-height:1.25;font-family:Viking-Normal;-inkscape-font-specification:Viking-Normal;letter-spacing:0px;word-spacing:0px;fill:#deaa87;fill-opacity:1;stroke:none"
       id="flowRoot945"
       xml:space="preserve"><flowRegion
         style="font-style:normal;font-variant:normal;font-weight:normal;font-stretch:normal;font-size:74.66666412px;font-family:Viking-Normal;-inkscape-font-specification:Viking-Normal;fill:#deaa87;fill-opacity:1"
         id="flowRegion941"><rect
           style="font-style:normal;font-variant:normal;font-weight:normal;font-stretch:normal;font-size:74.66666412px;font-family:Viking-Normal;-inkscape-font-specification:Viking-Normal;fill:#deaa87;fill-opacity:1"
           y="216.8054"
           x="85.714287"
           height="201.78963"
           width="982.26068"
           id="rect939" /></flowRegion><flowPara
         style="font-style:normal;font-variant:normal;font-weight:normal;font-stretch:normal;font-family:Viking-Normal;-inkscape-font-specification:Viking-Normal;fill:#deaa87;fill-opacity:1"
         id="flowPara943">NEW GAME</flowPara></flowRoot>    <flowRoot
       xml:space="preserve"
       id="flowRoot1243"
       style="font-style:normal;font-variant:normal;font-weight:normal;font-stretch:normal;font-size:64px;line-height:1.25;font-family:Viking-Normal;-inkscape-font-specification:Viking-Normal;letter-spacing:0px;word-spacing:0px;fill:#552200;fill-opacity:1;stroke:none"
       transform="matrix(0.26458333,0,0,0.26458333,826.48825,-126.3531)"><flowRegion
         id="flowRegion1239"
         style="font-style:normal;font-variant:normal;font-weight:normal;font-stretch:normal;font-size:74.66666412px;font-family:Viking-Normal;-inkscape-font-specification:Viking-Normal;fill:#552200;fill-opacity:1"><rect
           id="rect1237"
           width="982.26068"
           height="201.78963"
           x="85.714287"
           y="216.8054"
           style="font-style:normal;font-variant:normal;font-weight:normal;font-stretch:normal;font-size:74.66666412px;font-family:Viking-Normal;-inkscape-font-specification:Viking-Normal;fill:#552200;fill-opacity:1" /></flowRegion><flowPara
         id="flowPara1241"
         style="font-style:normal;font-variant:normal;font-weight:normal;font-stretch:normal;font-family:Viking-Normal;-inkscape-font-specification:Viking-Normal;fill:#552200;fill-opacity:1">NEW GAME</flowPara></flowRoot>  </g>
</svg>
